<svg width="291" height="102" viewBox="0 0 291 102" fill="none" xmlns="http://www.w3.org/2000/svg">
<circle cx="51" cy="51" r="50" fill="#FBFF25" stroke="#FBFF25" stroke-width="2"/>
<rect x="12.5" y="12.5" width="277" height="77" rx="38.5" fill="#FF3434" stroke="#FBFF25" stroke-width="3"/>
<path d="M48.5284 66V36.9091H54.679V60.929H67.1506V66H48.5284ZM87.005 45.2756C86.8913 44.1297 86.4036 43.2396 85.5419 42.6051C84.6802 41.9706 83.5107 41.6534 82.0334 41.6534C81.0296 41.6534 80.1821 41.7955 79.4908 42.0795C78.7995 42.3542 78.2692 42.7377 77.8999 43.2301C77.54 43.7225 77.3601 44.2812 77.3601 44.9062C77.3411 45.4271 77.45 45.8816 77.6868 46.2699C77.933 46.6581 78.2692 46.9943 78.6953 47.2784C79.1214 47.553 79.6139 47.7945 80.1726 48.0028C80.7313 48.2017 81.3279 48.3722 81.9624 48.5142L84.576 49.1392C85.8449 49.4233 87.0097 49.8021 88.0703 50.2756C89.1309 50.7491 90.0495 51.3314 90.826 52.0227C91.6025 52.714 92.2038 53.5284 92.63 54.4659C93.0656 55.4034 93.2881 56.4782 93.2976 57.6903C93.2881 59.4706 92.8336 61.0142 91.9339 62.321C91.0438 63.6184 89.7559 64.6269 88.0703 65.3466C86.3942 66.0568 84.3724 66.4119 82.005 66.4119C79.6565 66.4119 77.611 66.0521 75.8686 65.3324C74.1357 64.6127 72.7815 63.5473 71.8061 62.1364C70.8402 60.7159 70.3336 58.9593 70.2862 56.8665H76.2379C76.3042 57.8419 76.5836 58.6562 77.076 59.3097C77.5779 59.9536 78.2455 60.4413 79.0788 60.7727C79.9216 61.0947 80.8733 61.2557 81.9339 61.2557C82.9756 61.2557 83.88 61.1042 84.647 60.8011C85.4235 60.4981 86.0249 60.0767 86.451 59.5369C86.8771 58.9972 87.0902 58.3769 87.0902 57.6761C87.0902 57.0227 86.8961 56.4735 86.5078 56.0284C86.129 55.5833 85.5703 55.2045 84.8317 54.892C84.1025 54.5795 83.2076 54.2955 82.147 54.0398L78.9794 53.2443C76.5268 52.6477 74.5902 51.715 73.1697 50.446C71.7493 49.1771 71.0438 47.4678 71.0533 45.3182C71.0438 43.5568 71.5125 42.018 72.4595 40.7017C73.416 39.3854 74.7275 38.358 76.3942 37.6193C78.0608 36.8807 79.9548 36.5114 82.076 36.5114C84.2351 36.5114 86.1196 36.8807 87.7294 37.6193C89.3487 38.358 90.6082 39.3854 91.5078 40.7017C92.4074 42.018 92.8714 43.5426 92.8999 45.2756H87.005ZM123.102 47.0938H116.881C116.767 46.2888 116.535 45.5739 116.185 44.9489C115.834 44.3144 115.384 43.7746 114.835 43.3295C114.286 42.8845 113.652 42.5436 112.932 42.3068C112.222 42.0701 111.45 41.9517 110.616 41.9517C109.111 41.9517 107.799 42.3258 106.682 43.0739C105.564 43.8125 104.698 44.892 104.082 46.3125C103.467 47.7235 103.159 49.4375 103.159 51.4545C103.159 53.5284 103.467 55.2708 104.082 56.6818C104.707 58.0928 105.579 59.1581 106.696 59.8778C107.813 60.5975 109.106 60.9574 110.574 60.9574C111.398 60.9574 112.16 60.8485 112.861 60.6307C113.571 60.4129 114.201 60.0956 114.75 59.679C115.299 59.2528 115.754 58.7367 116.114 58.1307C116.483 57.5246 116.739 56.8333 116.881 56.0568L123.102 56.0852C122.941 57.4205 122.539 58.7083 121.895 59.9489C121.26 61.1799 120.403 62.2831 119.324 63.2585C118.254 64.2244 116.975 64.9915 115.489 65.5597C114.011 66.1184 112.34 66.3977 110.474 66.3977C107.88 66.3977 105.56 65.8106 103.514 64.6364C101.478 63.4621 99.8684 61.7623 98.6847 59.5369C97.5104 57.3116 96.9233 54.6174 96.9233 51.4545C96.9233 48.2822 97.5199 45.5833 98.7131 43.358C99.9063 41.1326 101.526 39.4375 103.571 38.2727C105.616 37.0985 107.918 36.5114 110.474 36.5114C112.16 36.5114 113.723 36.7481 115.162 37.2216C116.611 37.6951 117.894 38.3864 119.011 39.2955C120.129 40.1951 121.038 41.2983 121.739 42.6051C122.449 43.9119 122.903 45.4081 123.102 47.0938ZM137.257 66.4261C135.051 66.4261 133.143 65.9574 131.533 65.0199C129.932 64.0729 128.696 62.7566 127.825 61.071C126.954 59.3759 126.518 57.411 126.518 55.1761C126.518 52.9223 126.954 50.9527 127.825 49.267C128.696 47.572 129.932 46.2557 131.533 45.3182C133.143 44.3712 135.051 43.8977 137.257 43.8977C139.464 43.8977 141.367 44.3712 142.967 45.3182C144.577 46.2557 145.818 47.572 146.689 49.267C147.56 50.9527 147.996 52.9223 147.996 55.1761C147.996 57.411 147.56 59.3759 146.689 61.071C145.818 62.7566 144.577 64.0729 142.967 65.0199C141.367 65.9574 139.464 66.4261 137.257 66.4261ZM137.286 61.7386C138.289 61.7386 139.127 61.4545 139.8 60.8864C140.472 60.3087 140.979 59.5227 141.32 58.5284C141.67 57.5341 141.845 56.4025 141.845 55.1335C141.845 53.8646 141.67 52.733 141.32 51.7386C140.979 50.7443 140.472 49.9583 139.8 49.3807C139.127 48.803 138.289 48.5142 137.286 48.5142C136.272 48.5142 135.42 48.803 134.729 49.3807C134.047 49.9583 133.531 50.7443 133.18 51.7386C132.839 52.733 132.669 53.8646 132.669 55.1335C132.669 56.4025 132.839 57.5341 133.18 58.5284C133.531 59.5227 134.047 60.3087 134.729 60.8864C135.42 61.4545 136.272 61.7386 137.286 61.7386ZM165.922 56.7102V44.1818H171.973V66H166.163V62.0369H165.936C165.444 63.3153 164.625 64.3428 163.479 65.1193C162.342 65.8958 160.955 66.2841 159.317 66.2841C157.858 66.2841 156.575 65.9527 155.467 65.2898C154.359 64.6269 153.493 63.6847 152.868 62.4631C152.252 61.2415 151.94 59.7784 151.93 58.0739V44.1818H157.982V56.9943C157.991 58.2822 158.337 59.3002 159.018 60.0483C159.7 60.7964 160.614 61.1705 161.76 61.1705C162.489 61.1705 163.171 61.0047 163.805 60.6733C164.44 60.3324 164.951 59.8305 165.339 59.1676C165.737 58.5047 165.931 57.6856 165.922 56.7102ZM182.864 53.3864V66H176.813V44.1818H182.58V48.0312H182.836C183.319 46.7623 184.129 45.7585 185.265 45.0199C186.401 44.2718 187.779 43.8977 189.398 43.8977C190.914 43.8977 192.235 44.2292 193.362 44.892C194.488 45.5549 195.364 46.5019 195.989 47.733C196.614 48.9545 196.927 50.4129 196.927 52.108V66H190.876V53.1875C190.885 51.8523 190.544 50.8106 189.853 50.0625C189.162 49.3049 188.21 48.9261 186.998 48.9261C186.183 48.9261 185.464 49.1013 184.839 49.4517C184.223 49.8021 183.74 50.3134 183.39 50.9858C183.049 51.6487 182.874 52.4489 182.864 53.3864ZM213.301 44.1818V48.7273H200.162V44.1818H213.301ZM203.145 38.9545H209.196V59.2955C209.196 59.8542 209.281 60.2898 209.452 60.6023C209.622 60.9053 209.859 61.1184 210.162 61.2415C210.474 61.3646 210.834 61.4261 211.241 61.4261C211.526 61.4261 211.81 61.4025 212.094 61.3551C212.378 61.2983 212.596 61.2557 212.747 61.2273L213.699 65.7301C213.396 65.8248 212.97 65.9337 212.42 66.0568C211.871 66.1894 211.204 66.2699 210.418 66.2983C208.959 66.3551 207.681 66.161 206.582 65.7159C205.493 65.2708 204.646 64.5795 204.04 63.642C203.434 62.7045 203.135 61.5208 203.145 60.0909V38.9545ZM217.243 66V44.1818H223.109V47.9886H223.337C223.734 46.6345 224.402 45.6117 225.339 44.9205C226.277 44.2197 227.357 43.8693 228.578 43.8693C228.881 43.8693 229.208 43.8883 229.558 43.9261C229.909 43.964 230.216 44.0161 230.482 44.0824V49.4517C230.197 49.3665 229.804 49.2907 229.303 49.2244C228.801 49.1581 228.341 49.125 227.925 49.125C227.035 49.125 226.239 49.3191 225.538 49.7074C224.847 50.0862 224.298 50.6165 223.891 51.2983C223.493 51.9801 223.294 52.7661 223.294 53.6562V66H217.243ZM238.01 74.1818C237.243 74.1818 236.523 74.1203 235.851 73.9972C235.188 73.8835 234.639 73.7367 234.203 73.5568L235.567 69.0398C236.277 69.2576 236.916 69.3759 237.484 69.3949C238.062 69.4138 238.559 69.2813 238.976 68.9972C239.402 68.7131 239.748 68.2301 240.013 67.5483L240.368 66.625L232.541 44.1818H238.905L243.422 60.2045H243.649L248.209 44.1818H254.615L246.135 68.358C245.728 69.5322 245.174 70.5549 244.473 71.4261C243.782 72.3068 242.906 72.9839 241.845 73.4574C240.785 73.9403 239.506 74.1818 238.01 74.1818Z" fill="white"/>
</svg>
